<svg xmlns="http://www.w3.org/2000/svg" viewBox="0 0 478 234">
    <title>SELIMOV DEVELOPMENT COMPANY</title>
    <path d="M168.9,15.7v53.2l61.5-7.5V0L168.9,15.7z M211.9,51.1c-0.9,1.9-2.1,3.6-3.8,5.2c-1.6,1.5-3.5,2.8-5.7,3.8
        c-2.2,1-4.5,1.6-7,2c-2,0.3-4,0.3-6,0.1c-1.9-0.2-4.2-0.6-6.7-1.2l1.9-5.5c2,0.7,3.9,1.1,5.6,1.3c1.7,0.2,3.4,0.2,5,0
        c2.9-0.4,5.3-1.5,7.1-3.2c1.9-1.7,2.8-3.8,2.8-6.1c0-1-0.2-2-0.6-2.8c-0.4-0.8-1-1.5-1.8-2c-0.8-0.5-1.8-0.9-3-1.3
        c-1.2-0.4-2.8-0.9-4.9-1.4c-1.4-0.4-2.6-0.7-3.5-0.9c-0.9-0.3-1.7-0.5-2.3-0.8c-0.6-0.2-1.1-0.5-1.6-0.7c-0.4-0.3-0.9-0.6-1.4-1
        c-1.1-0.9-2-2-2.6-3.3c-0.6-1.3-0.9-2.8-0.9-4.4c0-1.9,0.4-3.8,1.1-5.5c0.7-1.7,1.8-3.4,3.2-4.8c1.4-1.5,3.1-2.8,5-3.9
        c2-1.1,4.2-2,6.6-2.6c1.7-0.4,3.5-0.7,5.2-0.8c1.8-0.1,3.7-0.1,5.9,0l-2,5.9c-1.6-0.3-3.1-0.4-4.4-0.4c-1.3,0-2.7,0.2-4.1,0.5
        c-2.9,0.7-5.2,1.9-7,3.6c-1.7,1.7-2.6,3.6-2.6,5.8c0,1.8,0.7,3.3,2.1,4.3c0.3,0.2,0.7,0.4,1,0.6c0.4,0.2,0.8,0.3,1.3,0.5
        c0.5,0.2,1.2,0.4,1.9,0.6c0.8,0.2,1.8,0.4,2.9,0.7c2.3,0.5,4.1,1,5.6,1.4c1.5,0.5,2.7,1,3.8,1.6c1.6,0.8,2.8,2,3.7,3.6
        c0.8,1.5,1.3,3.3,1.3,5.4C213.3,47.1,212.8,49.2,211.9,51.1z M168.9,90.5v53.2l61.5,4.1V86.3L168.9,90.5z M209.4,135.7
        c-3.4,3.9-8.7,5.6-15.6,5.2l-12.4-0.7V93.8l12.9-0.7c2.4-0.1,4.4,0,6.2,0.3c1.8,0.3,3.4,0.9,4.9,1.6c3,1.5,5.3,4.1,6.8,7.8
        c1.6,3.7,2.4,8.5,2.4,14.1C214.7,125.5,212.9,131.8,209.4,135.7z M205.5,108.2c0.5,2.4,0.7,5.4,0.7,8.8c0,3.6-0.2,6.6-0.7,9
        c-0.4,2.4-1.2,4.4-2.2,5.9c-1,1.5-2.3,2.5-3.9,3.1c-1.6,0.6-3.5,0.9-5.7,0.8l-5.2-0.2V98.5l5.6-0.3c2.1-0.1,3.9,0.2,5.4,0.8
        c1.5,0.7,2.8,1.7,3.8,3.3C204.3,103.8,205,105.8,205.5,108.2z M168.9,165.3v53.2l61.5,15.7v-61.5L168.9,165.3z M200.9,223
        c-6-1.5-10.4-4.6-13.4-9.4c-3-4.7-4.4-10.9-4.4-18.7c0-7.8,1.5-13.5,4.5-17.3c3.1-3.8,7.5-5.4,13.4-4.6c3.4,0.4,7,1.6,10.7,3.5
        l-1.3,4.8c-2.9-1.6-5.7-2.6-8.4-3c-3.9-0.6-6.8,0.7-8.6,3.7c-1.8,3-2.7,7.9-2.7,14.7c0,12.4,3.8,19.5,11.5,21.3
        c1.5,0.4,3,0.5,4.5,0.4c1.5-0.1,3.2-0.3,5.1-0.8l1.2,5.5C208.6,224,204.6,223.9,200.9,223z M280.6,47l-28.5-4.6
        c0.4,3.6,1.9,6.5,4.6,8.8c2.6,2.2,6.2,3.6,10.5,4.3c1.6,0.2,3.2,0.3,4.8,0.3c1.6,0,3.5-0.2,5.5-0.5l1.6,5c-4.8,0.6-9.4,0.7-13.9,0.1
        c-7.4-0.9-13.2-3.3-17.3-7.2c-4.2-4-6.4-9-6.4-15.2c0-5.8,1.9-9.9,5.7-12.4c3.7-2.5,8.8-3,15.2-1.7c6,1.2,10.5,3.6,13.6,7.2
        c3,3.5,4.5,7.9,4.6,13.2c0,0.4,0,0.8,0,1.2C280.7,45.8,280.7,46.4,280.6,47z M262.4,28.6c-3.5-0.7-6.1-0.2-8,1.3
        c-1.9,1.6-2.9,4.1-3.1,7.7l21.1,3.6l0-0.1c0-3.5-0.8-6.3-2.5-8.4C268.2,30.7,265.7,29.3,262.4,28.6z M287.8,62.4l-0.1-46.8l7.7,1.1
        l0.1,46.7L287.8,62.4z M303.7,22.8c0-1.3,0.3-2.2,1-2.6c0.6-0.4,1.7-0.4,3.2,0c1.5,0.4,2.6,0.9,3.2,1.6c0.6,0.7,0.9,1.7,0.9,3
        c0,1.3-0.3,2.2-0.9,2.6c-0.6,0.4-1.6,0.4-3.2,0.1c-1.6-0.3-2.7-0.9-3.3-1.6C304,25.2,303.7,24.2,303.7,22.8z M304.2,64.6l0-31.3
        l7.1,0.8l0,31.5L304.2,64.6z M319.5,66.5l0-30.2l6.6,0.7l0,2.3c3.1-1,5.9-1.3,8.7-0.7c1.4,0.3,2.7,0.7,3.9,1.4
        c1.2,0.6,2.2,1.4,3.1,2.3c0.2,0.2,0.4,0.5,0.6,0.7c0.2,0.2,0.4,0.5,0.7,1c3.3-1.6,6.4-2.1,9.5-1.4c2.8,0.6,5,1.8,6.7,3.8
        c0.4,0.5,0.7,0.9,1,1.4c0.3,0.5,0.5,1,0.7,1.5c0.2,0.6,0.3,1.2,0.3,1.8c0.1,0.7,0.1,1.5,0.1,2.4l0,18.6l-5.5-0.7l0-17.7
        c0-1.1-0.1-2-0.2-2.7c-0.2-1.1-0.8-2.1-1.7-2.9c-1-0.8-2.1-1.4-3.4-1.7c-1.1-0.2-2.1-0.2-3,0c-1,0.2-2,0.7-3.1,1.3l0,22.1l-6-0.8
        l0-18.5c0-0.8,0-1.3,0-1.8s0-0.8-0.1-1.1c-0.2-1.2-0.8-2.2-1.9-3.1c-1.1-0.9-2.4-1.5-3.9-1.8c-1.2-0.2-2.2-0.3-3.2-0.1
        c-1,0.2-2.1,0.5-3.2,1.1l0,23.6L319.5,66.5z M366.5,59.3c0-4.6,1-7.9,3-9.9c2-1.9,4.9-2.5,8.7-1.7c3.7,0.8,6.4,2.4,8.3,5
        c1.8,2.5,2.7,6,2.7,10.3c0,4.3-0.9,7.5-2.7,9.5c-1.8,2-4.5,2.8-8.3,2.3c-3.8-0.5-6.7-2-8.7-4.6C367.5,67.6,366.5,63.9,366.5,59.3z
         M378.2,51.4c-2-0.4-3.6,0.1-4.6,1.6c-1.1,1.5-1.6,3.9-1.6,7.2c0,6.8,2.1,10.4,6.2,11c2,0.3,3.4-0.4,4.4-1.9c1-1.5,1.5-3.9,1.5-7.1
        c0-3.2-0.5-5.7-1.5-7.5C381.7,52.9,380.2,51.8,378.2,51.4z M390.5,50.9l4.8,0.3l5.1,19.1c0.1,0.4,0.2,0.8,0.3,1.3
        c0.1,0.5,0.2,1.1,0.3,1.8c0.1-0.7,0.2-1.3,0.3-1.8c0.1-0.5,0.2-0.9,0.3-1.1l4.8-16.4l4.2,0.9l-7,22.4l-5.5-0.7L390.5,50.9z
         M280.9,126.3l-28.5,0.5c0.4,3.5,1.9,6.1,4.6,7.9c2.6,1.8,6.1,2.5,10.5,2.3c1.6-0.1,3.2-0.3,4.8-0.6c1.6-0.3,3.5-0.8,5.5-1.5
        l1.6,4.7c-4.8,1.5-9.4,2.3-13.8,2.6c-7.4,0.4-13.2-1-17.3-4.1c-4.2-3.2-6.3-7.9-6.4-14c0-5.7,1.9-10.2,5.7-13.4
        c3.7-3.1,8.8-4.6,15.2-4.4c6,0.2,10.5,1.7,13.6,4.7c3,2.9,4.5,7,4.5,12.4c0,0.4,0,0.8,0,1.2C281,125.1,281,125.7,280.9,126.3z
         M262.7,111.2c-3.4-0.1-6.1,0.9-8,2.8c-1.9,1.9-2.9,4.7-3,8.3l21.1-0.2l0-0.1c0-3.5-0.8-6.1-2.5-7.9
        C268.6,112.2,266.1,111.3,262.7,111.2z M282.5,107.7l8.4-0.6l9,23.9c0.2,0.5,0.3,1,0.5,1.7c0.2,0.6,0.4,1.4,0.5,2.3
        c0.2-0.9,0.3-1.7,0.5-2.4c0.2-0.7,0.4-1.3,0.5-1.6l8.2-22.6l7.1,0.2l-12,31l-9.5,0.5L282.5,107.7z M347,125.1l-20.3,0.4
        c0.3,2.9,1.4,5.2,3.3,6.7c1.9,1.5,4.4,2.2,7.5,2c1.1,0,2.3-0.2,3.5-0.5c1.2-0.3,2.5-0.7,4-1.3l1.1,4c-3.4,1.2-6.7,1.9-9.9,2.1
        c-5.2,0.3-9.4-0.9-12.3-3.6c-3-2.7-4.5-6.6-4.5-11.8c0-4.8,1.3-8.6,4-11.3c2.6-2.6,6.2-3.9,10.8-3.8c4.3,0.1,7.5,1.4,9.7,3.9
        c2.2,2.5,3.3,6,3.3,10.5c0,0.3,0,0.6,0,1C347.1,124.1,347,124.6,347,125.1z M334,112.4c-2.5,0-4.4,0.7-5.7,2.3
        c-1.3,1.6-2.1,3.9-2.2,7l15-0.1l0-0.1c0-2.9-0.6-5.2-1.8-6.7C338.1,113.2,336.3,112.4,334,112.4z M352.2,137.1l0-39.7l5.6-0.3
        l0,39.8L352.2,137.1z M363.1,123.1c0-4.7,1-8.2,3.1-10.5c2-2.3,5-3.4,8.8-3.3c3.8,0.1,6.6,1.3,8.4,3.6c1.8,2.2,2.7,5.5,2.7,9.9
        c0,4.4-0.9,7.7-2.7,10c-1.8,2.3-4.6,3.6-8.4,3.8c-3.9,0.2-6.8-0.8-8.8-3.1C364.2,131.3,363.1,127.8,363.1,123.1z M375,113
        c-2.1,0-3.6,0.8-4.7,2.5c-1.1,1.7-1.6,4.2-1.6,7.5c0,6.8,2.1,10.1,6.3,9.9c2-0.1,3.5-1,4.5-2.7c1-1.7,1.5-4.2,1.5-7.4
        c0-3.2-0.5-5.6-1.5-7.3C378.5,113.9,377,113,375,113z M390.7,144.5l0-34.1l4.2-0.4l0.2,2.4c1-0.8,2-1.4,2.8-1.8
        c0.9-0.3,1.9-0.5,2.9-0.5c1.3,0,2.5,0.4,3.6,1c1,0.6,1.9,1.5,2.7,2.6c0.7,1.1,1.3,2.4,1.7,3.9c0.4,1.5,0.6,3.2,0.6,5.1
        c0,1.8-0.2,3.5-0.6,5c-0.4,1.5-0.9,2.8-1.6,3.9c-0.7,1.1-1.6,1.9-2.6,2.6c-1,0.6-2.2,1-3.5,1.1c-1.1,0.1-2.1-0.1-3-0.4
        c-0.9-0.3-1.9-0.9-3-1.7l0,11L390.7,144.5z M395.2,115.8l0,13.8c1,0.6,1.8,1,2.5,1.3c0.7,0.2,1.4,0.3,2.2,0.3c1.7-0.1,3-0.8,3.9-2.3
        c0.9-1.5,1.3-3.5,1.3-6.2c0-2.6-0.5-4.7-1.4-6.2c-1-1.5-2.3-2.3-4-2.3c-0.7,0-1.4,0.1-2.1,0.4C396.9,114.8,396.1,115.2,395.2,115.8z
         M413.4,134l0-23.1l3.9-0.4l0,1.7c1.8-1.2,3.5-1.8,5.1-1.8c0.8,0,1.6,0.2,2.3,0.5c0.7,0.3,1.3,0.7,1.8,1.3c0.1,0.2,0.2,0.3,0.4,0.4
        c0.1,0.1,0.2,0.4,0.4,0.6c2-1.7,3.9-2.5,5.8-2.5c1.7,0,3.1,0.7,4.1,2c0.2,0.3,0.4,0.6,0.6,1c0.2,0.3,0.3,0.7,0.4,1.1
        c0.1,0.4,0.2,0.9,0.2,1.4c0,0.5,0.1,1.1,0.1,1.8l0,14.6l-3.4,0.2l0-13.9c0-0.9,0-1.5-0.1-2.1c-0.1-0.8-0.5-1.5-1.1-2
        c-0.6-0.5-1.3-0.8-2.1-0.8c-0.6,0-1.3,0.1-1.8,0.5c-0.6,0.3-1.2,0.8-1.9,1.5l0,17.2l-3.6,0.2l0-14.3c0-0.6,0-1,0-1.4
        c0-0.3,0-0.6,0-0.8c-0.1-0.9-0.5-1.6-1.1-2.1c-0.6-0.6-1.4-0.8-2.3-0.9c-0.7,0-1.3,0.1-1.9,0.4c-0.6,0.3-1.2,0.7-1.9,1.3l0,18.1
        L413.4,134z M455.4,123.1l-10.1,0.2c0.1,2.1,0.7,3.6,1.6,4.7c0.9,1.1,2.1,1.6,3.7,1.5c0.6,0,1.1-0.1,1.7-0.3c0.6-0.2,1.2-0.5,2-0.9
        l0.6,2.8c-1.7,0.8-3.4,1.3-4.9,1.4c-2.6,0.1-4.6-0.7-6-2.6c-1.4-1.9-2.2-4.6-2.2-8.2c0-3.3,0.6-6,1.9-7.8c1.3-1.9,3-2.7,5.3-2.7
        c2.1,0.1,3.7,1,4.8,2.7c1.1,1.7,1.6,4.2,1.6,7.4c0,0.2,0,0.5,0,0.7C455.4,122.4,455.4,122.7,455.4,123.1z M448.9,114.1
        c-1.2,0-2.1,0.5-2.8,1.7c-0.7,1.1-1,2.7-1.1,4.9l7.4-0.1l0-0.1c0-2.1-0.3-3.6-0.9-4.7C451,114.7,450.1,114.2,448.9,114.1z
         M458,131.7l0-19.7l2.8-0.4l0,1.8c0.8-0.6,1.5-1.1,2.2-1.4c0.7-0.3,1.4-0.4,2.1-0.4c1.4,0,2.5,0.6,3.3,1.7c0.4,0.5,0.7,1.1,0.9,1.8
        c0.2,0.7,0.2,1.6,0.2,2.9l0,13.1l-2.7,0.1l0-12.5c0-0.4,0-0.7,0-1c0-0.3,0-0.6-0.1-0.8c-0.1-0.7-0.4-1.3-0.9-1.8
        c-0.5-0.4-1-0.7-1.7-0.7c-1,0-2.2,0.5-3.4,1.6l0,15.4L458,131.7z M471.1,114.7l0-2.4l1.7,0l0-3.1l2.5-0.5l0,3.6l2.6,0.1l0,2.3
        l-2.6,0.3l0,11c0,0.3,0,0.6,0,0.8c0,0.2,0,0.4,0,0.5c0,0.4,0.2,0.7,0.4,0.9c0.2,0.2,0.5,0.3,0.8,0.3c0.4,0,0.8-0.2,1.4-0.5l0,2.5
        c-0.7,0.4-1.4,0.6-2.2,0.6c-1.1,0.1-1.9-0.3-2.4-0.9c-0.2-0.3-0.4-0.7-0.5-1.2c-0.1-0.5-0.1-1.1-0.1-1.9l0-12.2L471.1,114.7z
         M242.1,210.9c0-6.3,1.8-11.3,5.5-15c3.6-3.7,8.8-6,15.6-7.1c6.6-1,11.4-0.3,14.6,2.1c3.1,2.4,4.7,6.4,4.7,12.2
        c0,5.7-1.5,10.4-4.7,14c-3.2,3.7-8,6.3-14.6,7.8c-6.8,1.6-12,1.3-15.6-1.1C243.9,221.5,242.1,217.2,242.1,210.9z M263.2,193.7
        c-3.6,0.6-6.4,2.2-8.3,4.8c-1.9,2.6-2.9,6.1-2.8,10.5c0,9.1,3.8,12.8,11.2,11.1c3.5-0.8,6.1-2.5,7.9-5.1c1.8-2.6,2.6-6,2.6-10.2
        c0-4.2-0.9-7.2-2.6-9.1C269.3,193.7,266.7,193.1,263.2,193.7z M290.3,217.8l0-32.3l7.6-1.9l0,2.4c3.5-2.3,6.8-3.7,9.9-4.2
        c1.6-0.2,3.1-0.3,4.5-0.1c1.4,0.2,2.5,0.6,3.5,1.2c0.2,0.2,0.5,0.3,0.7,0.5c0.2,0.1,0.5,0.4,0.8,0.8c3.7-3,7.3-4.8,10.8-5.3
        c3.2-0.5,5.7,0,7.6,1.4c0.4,0.4,0.8,0.7,1.2,1.1c0.3,0.4,0.6,0.8,0.8,1.4c0.2,0.5,0.3,1.1,0.4,1.8c0.1,0.7,0.1,1.5,0.1,2.5l0,19.8
        l-6.2,1.4l0-18.9c0-1.2-0.1-2.1-0.2-2.8c-0.2-1.1-0.9-1.9-2-2.4c-1.1-0.5-2.4-0.7-3.8-0.4c-1.2,0.2-2.4,0.6-3.5,1.2
        c-1.1,0.6-2.3,1.5-3.5,2.6l0,23.6l-6.9,1.6l0-19.7c0-0.8,0-1.4,0-1.9c0-0.4,0-0.8-0.1-1.1c-0.3-1.1-1-2-2.2-2.5
        c-1.2-0.6-2.7-0.7-4.5-0.4c-1.3,0.2-2.6,0.6-3.7,1.2c-1.1,0.6-2.4,1.4-3.7,2.5l0,25.3L290.3,217.8z M345.1,215.7l0-38.8l5.4-1.5
        l0.3,2.7c1.3-1.2,2.5-2.1,3.7-2.7c1.2-0.6,2.4-1,3.8-1.2c1.7-0.3,3.2-0.2,4.6,0.3c1.3,0.4,2.5,1.2,3.4,2.3c0.9,1.1,1.7,2.4,2.2,4
        c0.5,1.6,0.7,3.5,0.7,5.7c0,2.1-0.2,4-0.7,5.8c-0.5,1.8-1.2,3.4-2.1,4.7c-0.9,1.4-2.1,2.6-3.4,3.5c-1.3,1-2.8,1.7-4.5,2
        c-1.4,0.3-2.6,0.4-3.8,0.3c-1.2-0.1-2.5-0.6-3.9-1.2l0,12.5L345.1,215.7z M350.9,182l0,15.6c1.3,0.5,2.3,0.7,3.2,0.8
        c0.9,0.1,1.8,0,2.8-0.2c2.2-0.5,3.9-1.7,5-3.5c1.1-1.9,1.7-4.3,1.7-7.3c0-3-0.6-5.2-1.8-6.7c-1.2-1.5-2.9-2.1-5.1-1.7
        c-0.9,0.2-1.8,0.5-2.7,0.9C353.1,180.4,352.1,181.1,350.9,182z M388.5,180l0-2.4c0-0.4,0-0.7,0-1c0-0.3,0-0.5-0.1-0.7
        c-0.2-0.8-0.7-1.4-1.5-1.7c-0.8-0.3-1.9-0.4-3.3-0.2c-1,0.2-2.1,0.5-3.2,0.9c-1.1,0.4-2.4,1-3.9,1.8l-1.3-3.6c2-0.9,3.7-1.6,5.1-2
        c1.4-0.5,2.8-0.8,4.2-1c1.5-0.2,2.8-0.3,3.9-0.1c1,0.1,1.9,0.5,2.7,1c0.7,0.5,1.2,1.1,1.5,1.8c0.2,0.7,0.4,1.9,0.4,3.5l0,17.8
        l-4.2,1l-0.2-2.2c-1.2,1.3-2.4,2.4-3.6,3.1c-1.1,0.7-2.4,1.2-3.7,1.5c-1.2,0.3-2.4,0.4-3.4,0.2c-1-0.2-1.9-0.5-2.7-1.1
        c-0.8-0.6-1.4-1.3-1.8-2.2c-0.4-0.9-0.6-2-0.6-3.2c0-1.4,0.2-2.6,0.7-3.8c0.5-1.2,1.2-2.3,2-3.2c0.9-0.9,1.9-1.7,3.1-2.4
        c1.2-0.6,2.5-1.1,3.9-1.3c0.9-0.2,1.8-0.3,2.8-0.3C386.3,180,387.4,180,388.5,180z M388.5,189.7l0-7c-0.8,0-1.5,0-2.1,0.1
        c-0.6,0.1-1.3,0.2-1.9,0.3c-1.9,0.4-3.5,1.1-4.6,2.3c-1.2,1.2-1.8,2.6-1.8,4.2c0,1.4,0.5,2.4,1.4,3c0.9,0.6,2.1,0.8,3.6,0.4
        c1-0.2,1.9-0.6,2.7-1.1C386.7,191.5,387.6,190.7,388.5,189.7z M398.2,192.8l0-24.2l4.2-1.3l0,2.2c1.2-1,2.3-1.8,3.3-2.3
        c1-0.5,2.1-0.9,3.1-1c2.1-0.3,3.7,0.1,5,1.2c0.6,0.5,1,1.2,1.3,2c0.2,0.8,0.4,1.9,0.4,3.5l0,16l-3.9,0.9l0-15.2c0-0.4,0-0.8,0-1.2
        c0-0.4-0.1-0.7-0.1-0.9c-0.2-0.9-0.6-1.5-1.3-1.9c-0.7-0.4-1.5-0.5-2.5-0.4c-1.5,0.3-3.2,1.2-5,2.9l0,18.8L398.2,192.8z
         M417.3,165.6l4-1.1l4.4,15.9c0.1,0.2,0.1,0.6,0.2,1c0.1,0.4,0.2,1,0.3,1.6c0.1-1.1,0.3-2.1,0.5-2.8l4.2-16.7l3.7-0.6l-6.8,26
        c-0.3,1.2-0.6,2.2-1,3.1c-0.3,0.9-0.7,1.6-1.2,2.1c-0.4,0.6-0.9,1-1.5,1.4c-0.6,0.3-1.2,0.6-1.9,0.8c-0.6,0.2-1.2,0.3-1.8,0.3
        c-0.6,0.1-1.4,0.1-2.2,0l0.8-3.3c0.5,0.1,0.9,0.1,1.3,0.1c0.4,0,0.8,0,1.1-0.1c0.8-0.2,1.4-0.6,1.9-1.3c0.5-0.6,0.9-1.7,1.3-3.1
        l0.7-2.4l-1.8,0.4L417.3,165.6z M142.1,84.3c0,1.3,0,2.1,0,2.9c0,22.3,0,44.6,0,66.9c0,10.4-7.2,16.2-17.5,14.6
        c-48.4-7.6-84.7-13.4-112.9-17.8c-4.3-0.7-7.1-5.5-7.1-11.8c0-8.1,0-16.2,0-24.3c0-1.1-0.2-1.6-0.8-2.2c-2.5-2.2-3.7-5.7-3.7-10.1
        c0-4.1,1.2-7.4,3.6-10.1c0,2.7,0,5.1,0,7.6c0,1,0.1,1.6,0.8,2.1c1.1,0.8,2.1,2.4,3.2,2.3c1.1-0.1,2.2-1.8,3.3-2.7
        c0.6-0.5,0.9-1.1,0.9-2.2c-0.1-2.5,0-5.1,0-7.9c2.5,2.1,3.9,5.3,4,9.4c0.2,4.7-1,8.6-3.7,11.1c-1,0.9-1.3,1.8-1.3,3.5
        c0.1,7.5,0,14.9,0,22.4c0,2.5,0.5,3.3,2.2,3.5c27.5,3.2,62.5,7.2,108.8,12.5c3.9,0.4,4.9-0.5,4.9-4.5c0-20.3,0-40.7,0-61
        c0-1-0.5-2.1,1-2.8c1.5-0.7,2.7-1.7,4.4-0.5C135,87.2,138.3,87.9,142.1,84.3z M153.4,45.3c0.1-1.5-0.5-2.3-2.3-2
        c-4.6,0.8-6.7-0.7-8.4-4.4c-1.8-3.7-2-6.4,1.2-10.3c1.2-1.4,0.7-2.3-0.4-3c-1.7-1-3.4-2.1-4.8-3.3c-1.2-1-2.3-0.7-3.6,0.7
        c-0.6,0.7-1.4,1.2-1.9,1.8c-1.7,2.1-3.3,2.7-5.4,1.9c-1.6-0.6-3.7-0.6-5.5-0.7c-1,0-1.4-0.4-1.7-1.3c-0.5-1.8,0.1-4.8-1.8-5.3
        c-1.7-0.4-4,1.1-6,1.4c-2.5,0.4-3.5,1.8-3.6,4.2c-0.1,2.7-0.8,5-3.9,6.1c-1,0.4-2,1.2-2.8,2c-1.8,2-3.3,1.9-4.9,0.9
        c-0.8-0.5-1.7-1.1-2.7-1.1c-0.6,0.2-0.9,0.8-1.3,1.2c-1,1.3-1.9,2.6-2.9,3.9c-2,2.7-2.1,2.8-0.3,4.9c1.4,1.6,2,3.1,0.5,5.7
        c-0.8,1.4-1.1,3.2-1.5,4.9c-0.2,0.9-0.7,1.4-1.5,1.8c-4.7,2.1-4.7,2.1-4.7,7.5c0,0.1,0,0.1,0,0.2c0,3.2,0,3.3,2.9,3.2
        c2.2-0.1,3.6,0.5,3.9,3.2c0.1,1.1,0.7,2.1,1.3,3c0.9,1.4,0.9,2.6-0.2,4.3c-2.3,3.7-2.2,3.7,0.5,6.4c3.2,3.2,3.2,3.2,7.1-0.1
        c1.1-0.9,1.9-1.1,3.1-0.5c1.7,0.9,3.5,1.5,5.5,1.8c0.9,0.1,1.6,0.5,1.8,1.6c0.3,1.8-0.1,4.2,1.3,5.2c1.4,1,3.7,0,5.7-0.1
        c3.8-0.2,3.9-0.3,4.3-4.1c0.3-2.6,1.2-4.1,3.9-4.9c1.7-0.5,3.4-1.7,5-2.7c1.1-0.7,1.8-0.6,2.7-0.1c5.6,2.9,5.6,2.9,10.3-2.2
        c0.5-0.6,1-1.2,1.5-1.7c1.3-1.2,1.3-2.2,0.2-3.1c-3.2-2.6-2.9-5.5-1.2-9.7c1.7-4.2,3.7-6.7,8.4-7.5c1.7-0.3,2.3-1.3,2.3-2.8
        C153.4,49.9,153.3,47.6,153.4,45.3z M114.8,73.8C105.4,75.1,98.1,68.4,98,59c0-9.5,7.1-18.7,16.5-21c10.1-2.4,18.5,3.9,18.5,14.5
        C133.1,62.9,124.7,72.5,114.8,73.8z M94.3,195.3c-0.6,0.2-1.3-0.1-2-0.2c-24.7-6.4-45.6-11.9-63.7-16.6c-0.4-0.1-0.8-0.3-1.1-0.4
        c-0.8-0.3-0.8-1.3-0.9-2.1c-0.1-0.4-0.1-0.8-0.1-1.2c0-3.5,0.2-3.7,2.7-3.2c2.2,0.5,4.3,1,6.6,1.6c0.8,0.2,1.2,0,1.4-1
        c1-3.9,2.1-7.8,3.1-11.7c0.3-1,0.6-1.4,1.6-1.3c9.7,1.7,20.2,3.5,31.5,5.4c1.2,0.2,1.6,0.7,2,2.1c1.3,5,2.7,10,4.1,15.1
        c0.3,1.3,0.8,1.8,2,2.1c3.6,0.8,7.4,1.7,11.2,2.6c2,0.4,3.1,1.7,2.9,3.7C95.5,191.9,96.6,194.5,94.3,195.3z M4.5,85.3
        c0-4.9,0-9.7,0-14.6c0.1-5.6,2.9-10.6,6.8-11.6c11.8-3,25-6.3,39.7-10c0.6-0.1,3,1.5,3.1,2.2c0.1,0.4,0.2,0.9-0.2,1.3
        c-0.9,1-1.7,2.1-2,3.5c-0.3,1.5,0.4,2.5,0.5,4c-0.6,0.1-1.1,0.2-1.7,0.4c-13.8,2.9-26.3,5.5-37.6,7.8c-1.9,0.4-2.3,1.1-2.3,3.9
        c0,4,0,8.1,0,12.1c0,0.9-0.2,1.4-0.7,1.9c-2.5,2.6-2.5,2.6-5,0.6C4.7,86.5,4.5,86.1,4.5,85.3z M54.5,88.2c-0.1,1.1-0.7,1.5-1.5,1.7
        c-2.5,0.7-2.5,0.7-2.5,3.8c0,3.5,0,3.5,2.7,3.9c0.9,0.2,3.1,5.7,2.7,6.8c0,0.1-0.1,0.2-0.2,0.3c-1.6,3.2-1.6,3.2,0.5,5.9
        c0.3,0.3,0.5,0.6,0.8,1c0.5,0.8,1.2,0.8,1.7,0.2c1.7-2.4,3.5-1.9,5.5-0.5c0.3,0.2,0.6,0.3,1,0.4c1.1,0.1,1.4,0.9,1.5,2.2
        c0.3,3.3,0.3,3.2,3.2,3.3c0.2,0,0.5,0,0.7,0c2.7,0,2.7,0,3.1-3.3c0.1-0.7,0-1.8,0.7-2c2-0.5,3.6-2.1,5.6-2.5c0.1,0,0.3,0.2,0.5,0.3
        c3.2,2.3,3.2,2.3,6-0.8c0.2-0.3,0.5-0.5,0.7-0.8c0.9-0.8,1.1-1.8,0.3-2.6c-2.1-2.1-1.8-4.4-0.4-6.9c0.3-0.6,0.4-1.4,0.6-2.1
        c0.2-0.8,0.5-1.2,1.3-1.4c3.9-1,3.9-1.1,3.9-5.3c0-0.4-0.1-0.9,0-1.3c0.2-1.7-0.6-2.4-1.9-2.3c-2.2,0.2-3.2-0.9-4-3.1
        c-1-2.6-1.8-4.6,0.4-7.2c0.8-1,0.5-2-0.4-2.5c-1.5-0.8-2-3.7-4.5-2.5c-0.1,0-0.1,0.1-0.2,0.1c-1.8,2.6-3.8,2.7-5.8,1.4
        c-0.5-0.3-1.1-0.3-1.7-0.4c-0.6-0.1-1-0.4-1.1-1.2c-0.7-4-0.7-4-4.3-3.4c-0.3,0-0.6,0.1-0.9,0.1c-1,0-1.7,0.7-1.7,1.8
        c0.1,3-1.4,4.5-3.5,5.4c-0.5,0.2-0.9,0.6-1.3,1c-0.6,0.6-1.2,0.6-1.8,0.1c-0.7-0.6-1.4-1.2-2.3-1.4c-0.1,0-0.3,0-0.3,0.1
        c-1.2,1.4-2.3,3-3.3,4.6c-0.2,0.4,0,1,0.3,1.2c1.9,1.8,1.4,4.1,0.3,6.4C54.6,87.2,54.5,87.7,54.5,88.2z M69.6,80.1
        c6-1,11,3.9,11.3,11.1c0.2,6.7-4.7,12.9-10.6,13.4c-5.5,0.5-10.1-4.6-10.3-11C59.8,87.2,64.1,81,69.6,80.1z M55.9,54.9
        c-1,0.8-1.4,1.8-0.8,3c0.6,1.2,0.6,3.6,2.7,2.2c1.2-0.8,1.9-0.6,2.6,0.5c0.2,0.4,0.6,0.7,0.9,0.9c1,0.5,1.2,1.6,0.8,2.9
        c-0.5,1.5-0.2,2.5,1,2.6c1.3,0.1,2.8,1.9,3.8-1.1c0.5-1.3,1.1-2,2.3-1.9c0.6,0,1.2-0.1,1.7-0.3c1.2-0.5,1.9-0.2,2.4,1
        c0.5,1.2,1.2,1.9,2.5,0.8c1.3-1.1,3.7-1.5,2.7-4.3c-0.4-1.3-0.2-2.2,0.8-3.2c0.5-0.5,1-1.1,1.3-1.8c0.6-1.3,1.4-1.8,2.5-1.5
        c1.4,0.3,2.4,0,3-2c1.2-3.9,1.3-4-0.8-4.8c-0.9-0.4-1.3-0.9-1.2-2.1c0.1-0.9,0.1-1.8,0-2.6c-0.2-1.3,0.2-2.3,1.3-3.1
        c1.5-1.1,1.9-2.3,1.1-3.7c-0.8-1.4-1-3.8-3.6-1.9c-1,0.8-1.8,0.8-2.4-0.1c-0.3-0.4-0.7-0.8-1.2-1c-1.3-0.6-1.6-1.7-1-3.5
        c0.5-1.5,0-2.1-1.2-2.2c-0.7,0-1.4-0.2-2-0.3c-0.6-0.1-1.3,0.1-1.6,0.9C73,31,71.2,31.4,69.4,32c-1.4,0.4-2.2,0.3-2.7-1
        c-0.3-0.7-0.7-1.1-1.6-0.7c-2.4,1.2-3.3,2.9-2.9,5.6c0,0.1,0,0.1,0,0.2c0.1,0.4,0.1,0.8-0.2,1.2c-1,1.2-1.8,2.5-2.5,3.8
        c-0.3,0.6-0.7,0.4-1,0.4c-2.4,0.2-2.3,0.2-3.3,3.1c-0.5,1.7-0.4,2.7,0.9,3c0.9,0.2,1.2,1,1,2.2c-0.1,0.7-0.1,1.4,0,2
        C57.4,53.2,56.9,54.1,55.9,54.9z M70.1,37.9c4.7-1.3,8.6,2.3,8.6,7.8c0,5.5-3.9,10.9-8.5,11.8c-4.5,1-8.2-2.7-8.2-7.8
        C62,44.5,65.6,39.1,70.1,37.9z M126.4,53.8c0,6.7-5.2,12.7-11.7,13.7c-6.2,0.9-11-3.3-11-9.4c0-6.3,4.8-12.4,11-13.7
        C121.1,43,126.4,47.1,126.4,53.8z M63.6,92.9c0-4.1,2.8-7.9,6.4-8.3c3.6-0.4,6.7,2.8,6.8,7.1c0,4.4-3,8-6.7,8.3
        C66.5,100.2,63.6,97,63.6,92.9z M65.3,48.7c0.1-3.1,2.2-6.1,4.8-6.7c2.6-0.6,4.8,1.5,4.8,4.6c0,3.2-2.3,6.2-4.9,6.8
        C67.5,54,65.3,51.9,65.3,48.7z"/>
</svg>
