<?xml version="1.0" encoding="utf-8"?>
<svg xmlns="http://www.w3.org/2000/svg" xmlns:xlink="http://www.w3.org/1999/xlink" viewBox="0 0 512 768"><style type="text/css">
	.st0{fill:#dadada;}
	.st1{opacity:0.7;fill:url(#SVGID_1_);enable-background:new    ;}
	.st2{opacity:0.8;fill:url(#SVGID_2_);enable-background:new    ;}
	.st3{fill:url(#SVGID_3_);}
	.st4{fill:#444444;}
	.st5{opacity:0.7;fill:#C2185C;enable-background:new    ;}
	.st6{opacity:0.7;fill:#880F4F;enable-background:new    ;}
	.st7{fill:#EC4079;}
	.st8{fill:#444242;}
	.st9{fill:#E194DB;}
	.st10{fill:#0E343D;}
	.st11{opacity:0.7;fill:url(#SVGID_4_);enable-background:new    ;}
	.st12{fill:#C2185C;}
</style>
<title>Default book cover</title>
	<rect class="st0" width="512" height="768"/>
	
		<linearGradient id="SVGID_1_" gradientUnits="userSpaceOnUse" x1="69.158" y1="193.15" x2="218.732" y2="193.15" gradientTransform="matrix(1 0 0 -1 0 768)">
		<stop  offset="0" style="stop-color:#D81C61"/>
		<stop  offset="0.23" style="stop-color:#D43280"/>
		<stop  offset="0.57" style="stop-color:#D04EA6"/>
		<stop  offset="0.83" style="stop-color:#CD5FBE"/>
		<stop  offset="1" style="stop-color:#CC65C7"/>
	</linearGradient>
	<path class="st1" d="M215.1,503.7c4.8,4.8,4.8,12.7,0,17.5L90.3,646c-4.8,4.8-12.7,4.8-17.5,0l0,0c-4.8-4.8-4.8-12.7,0-17.5
		l124.8-124.8C202.4,498.9,210.3,498.9,215.1,503.7z"/>
	
		<radialGradient id="SVGID_2_" cx="309.2104" cy="556.85" r="82.8026" gradientTransform="matrix(1 0 0 -1 0 768)" gradientUnits="userSpaceOnUse">
		<stop  offset="0" style="stop-color:#F44337"/>
		<stop  offset="0.23" style="stop-color:#E7314B"/>
		<stop  offset="0.45" style="stop-color:#D81C61"/>
		<stop  offset="0.67" style="stop-color:#B11658"/>
		<stop  offset="0.88" style="stop-color:#931152"/>
		<stop  offset="1" style="stop-color:#880F4F"/>
	</radialGradient>
	<path class="st2" d="M388,132.4c5.3,5.3,5.3,14,0,19.4L249.8,289.9c-5.3,5.4-14,5.4-19.4,0c0,0,0,0,0,0l0,0c-5.4-5.3-5.4-14,0-19.4
		c0,0,0,0,0,0l138.2-138.2C374,127,382.7,127,388,132.4C388,132.4,388,132.4,388,132.4L388,132.4z"/>
	
		<linearGradient id="SVGID_3_" gradientUnits="userSpaceOnUse" x1="250.5143" y1="466.3225" x2="434.4598" y2="466.3225" gradientTransform="matrix(1 0 0 -1 0 768)">
		<stop  offset="0" style="stop-color:#C2185C"/>
		<stop  offset="0.18" style="stop-color:#CD427F"/>
		<stop  offset="0.45" style="stop-color:#DB77AC"/>
		<stop  offset="0.68" style="stop-color:#E59ECD"/>
		<stop  offset="0.86" style="stop-color:#EBB6E1"/>
		<stop  offset="0.97" style="stop-color:#EDBFE8"/>
	</linearGradient>
	<path class="st3" d="M430,214.2c5.9,5.9,5.9,15.6,0,21.5c0,0,0,0,0,0L276.5,389.2c-5.9,5.9-15.6,5.9-21.5,0c0,0,0,0,0,0l0,0
		c-5.9-5.9-5.9-15.6,0-21.5l153.5-153.5C414.4,208.2,424,208.2,430,214.2L430,214.2z"/>
	<rect x="143.9" y="231.1" class="st0" width="225.2" height="334.7"/>
	<path class="st4" d="M376.6,573.4H136.4V223.6h240.2L376.6,573.4z M151.5,558.4h210.1V238.7H151.5L151.5,558.4z"/>
	<path class="st5" d="M297,158.3c3,3,3,7.7,0,10.7c0,0,0,0,0,0l-76.3,76.3c-3,3-7.7,3-10.7,0l0,0c-3-3-3-7.7,0-10.7l76.4-76.3
		C289.3,155.3,294.1,155.3,297,158.3C297,158.3,297,158.3,297,158.3L297,158.3z"/>
	<circle class="st6" cx="223.1" cy="266.2" r="7.6"/>
	<circle class="st7" cx="384.8" cy="332.6" r="18.6"/>
	<circle class="st8" cx="394" cy="376.3" r="9.1"/>
	<circle class="st8" cx="100.4" cy="508.1" r="9.1"/>
	<circle class="st9" cx="297.8" cy="563.4" r="11.5"/>
	<circle class="st7" cx="421.5" cy="497" r="16.9"/>
	<path class="st10" d="M262.8,117.3c0.2,0.2,0.2,0.6,0,0.9L75.9,305c-0.2,0.2-0.6,0.2-0.9,0l0,0c-0.2-0.2-0.2-0.6,0-0.9l186.8-186.9
		C262.1,117,262.5,117,262.8,117.3L262.8,117.3z"/>
	
		<linearGradient id="SVGID_4_" gradientUnits="userSpaceOnUse" x1="63.2609" y1="459.7596" x2="177.9891" y2="459.7596" gradientTransform="matrix(1 0 0 -1 0 768)">
		<stop  offset="0" style="stop-color:#EC4079"/>
		<stop  offset="0.32" style="stop-color:#E33873"/>
		<stop  offset="0.83" style="stop-color:#CB2163"/>
		<stop  offset="1" style="stop-color:#C2185C"/>
	</linearGradient>
	<path class="st11" d="M175.2,253.7c3.7,3.7,3.7,9.7,0,13.4l-95.7,95.7c-3.7,3.7-9.7,3.7-13.4,0l0,0c-3.7-3.7-3.7-9.7,0-13.4
		l95.7-95.7C165.5,250,171.5,250,175.2,253.7L175.2,253.7z"/>
	<path class="st12" d="M203.7,295.5c0.9,0.9,0.9,2.3,0,3.2c0,0,0,0,0,0L30.6,471.8c-0.9,0.9-2.3,0.9-3.2,0c0,0,0,0,0,0l0,0
		c-0.9-0.9-0.9-2.3,0-3.2c0,0,0,0,0,0l173.1-173.1C201.4,294.6,202.8,294.6,203.7,295.5C203.7,295.5,203.7,295.5,203.7,295.5z"/>
	<path class="st7" d="M434.1,389.9c3.5,3.5,3.5,9.3,0,12.8l-91.5,91.5c-3.5,3.5-9.3,3.5-12.8,0l0,0c-3.5-3.5-3.5-9.3,0-12.8
		l91.5-91.5C424.9,386.3,430.6,386.3,434.1,389.9z"/>
	<path class="st7" d="M392,543c0.7,0.7,1.1,1.3,1,1.5l-105,105c-0.1,0.1-0.8-0.3-1.5-1l0,0c-0.7-0.7-1.1-1.3-1-1.5l105-105
		C390.7,541.9,391.3,542.3,392,543z"/>
	<path class="st7" d="M230.8,552c2.9,2.9,3,7.7,0,10.7c0,0,0,0,0,0l-76.2,76.1c-2.9,2.9-7.7,3-10.7,0c0,0,0,0,0,0l0,0
		c-2.9-2.9-3-7.7,0-10.7c0,0,0,0,0,0l76.2-76.1C223,549.1,227.8,549,230.8,552C230.8,552,230.8,552,230.8,552L230.8,552z"/>
	<circle class="st8" cx="165.4" cy="183.4" r="15.4"/>
	<path class="st8" d="M173.7,373.5h-3.9v-16.3h-5.5v-3.7h14.9v3.7h-5.5L173.7,373.5z M195,373.5v-8.2h-7.7v8.2h-3.9v-20h3.9v8.1h7.7
		v-8.1h4v20H195z M217.6,361.6v3.7h-8.6v4.5h9.4v3.7H205v-20h13.3v3.7h-9.4v4.4L217.6,361.6z M240.1,353.5c5.8,0,6.8,3.3,6.8,5.3
		c0.1,1.8-0.9,3.5-2.6,4.3c2.1,0.5,3.5,2.5,3.4,4.7c0,3.2-1.8,5.7-7.4,5.7h-7.8v-20L240.1,353.5z M236.3,361.5h4.2
		c2.1,0,2.6-1.2,2.6-2.1s-0.4-2.1-2.6-2.1h-4.2V361.5z M236.3,369.8h4.7c2.1,0,2.9-1.1,2.9-2.4s-0.8-2.4-2.9-2.4h-4.7V369.8z
		 M271.1,363.5c0,5.6-4.6,10.2-10.2,10.2c-5.6,0-10.2-4.6-10.2-10.2c0-5.6,4.6-10.2,10.2-10.2C266.6,353.3,271.1,357.9,271.1,363.5
		C271.1,363.5,271.1,363.5,271.1,363.5L271.1,363.5z M254.7,363.5c0.1,3.4,3,6.1,6.5,6c3.4-0.1,6.1-3,6-6.5c-0.1-3.4-2.9-6-6.3-6
		c-3.4,0-6.2,2.7-6.2,6.1C254.7,363.2,254.7,363.4,254.7,363.5L254.7,363.5z M294.7,363.5c0,5.6-4.6,10.2-10.2,10.2
		c-5.6,0-10.2-4.6-10.2-10.2c0-5.6,4.6-10.2,10.2-10.2C290.2,353.3,294.7,357.8,294.7,363.5C294.8,363.4,294.8,363.5,294.7,363.5
		L294.7,363.5z M278.3,363.5c0.1,3.4,3,6.1,6.5,6c3.4-0.1,6.1-3,6-6.5c-0.1-3.4-2.9-6-6.3-6c-3.4,0-6.2,2.7-6.2,6.1
		C278.4,363.3,278.4,363.4,278.3,363.5L278.3,363.5z M307.8,367.1c-0.9-1.3-1.3-1.8-2.7-1.8h-1.8v8.2h-3.9v-20h3.9v8h1.7
		c1.4,0,1.9-0.5,2.7-1.8l3.9-6.2h4.5l-4.7,7.4c-0.6,1-1.4,1.8-2.3,2.4c0.6,0.3,1.3,0.8,2.4,2.6l4.9,7.6H312L307.8,367.1z
		 M222.8,407.7l-4.9-12l-4.9,12h-2.3l-8.1-20h4.4l4.8,12.7l4.9-12.7h2.3l4.9,12.8l4.8-12.7h4.4l-8,20L222.8,407.7z M246.1,404v3.7
		h-8.7V404h2.4v-12.6h-2.4v-3.7h8.7v3.7h-2.4V404H246.1z M259.8,407.7h-3.9v-16.3h-5.5v-3.7h14.9v3.7h-5.5V407.7z M281.2,407.7v-8.2
		h-7.7v8.2h-3.9v-20h3.9v8.1h7.7v-8.1h3.9v20H281.2z M310.2,397.7c0,5.6-4.6,10.2-10.2,10.2s-10.2-4.6-10.2-10.2
		c0-5.6,4.6-10.2,10.2-10.2C305.6,387.5,310.1,392.1,310.2,397.7L310.2,397.7z M293.8,397.7c0.1,3.4,3,6.1,6.5,6
		c3.4-0.1,6.1-3,6-6.5c-0.1-3.4-2.9-6-6.3-6c-3.4-0.1-6.2,2.6-6.3,6C293.7,397.4,293.7,397.6,293.8,397.7L293.8,397.7z M331,399.3
		c0,5.8-3.9,8.6-8.1,8.6s-8.1-2.8-8.1-8.6v-11.6h3.9v11.5c0,3.7,2.1,5,4.2,5s4.2-1.2,4.2-5v-11.5h3.9L331,399.3z M344.4,407.7h-3.9
		v-16.3h-5.5v-3.7h14.9v3.7h-5.5L344.4,407.7z M211.2,425.1l-2.6,2.4c-1.3-1.3-3.1-2-5-2c-3.6,0.1-6.4,3.2-6.2,6.7
		c0.1,3.4,2.8,6.1,6.2,6.2c1.9,0,3.7-0.7,5-2l2.6,2.4c-1.9,2.1-4.7,3.3-7.5,3.3c-5.6,0-10.2-4.6-10.2-10.2c0-5.6,4.6-10.2,10.2-10.2
		C206.5,421.7,209.3,422.9,211.2,425.1z M234.7,431.9c0,5.6-4.6,10.2-10.2,10.2s-10.2-4.6-10.2-10.2c0-5.6,4.6-10.2,10.2-10.2
		C230.1,421.8,234.7,426.3,234.7,431.9C234.7,431.9,234.7,431.9,234.7,431.9z M218.3,431.9c0.1,3.4,3,6.1,6.5,6c3.4-0.1,6.1-3,6-6.5
		c-0.1-3.4-2.9-6-6.3-6c-3.4,0-6.2,2.7-6.2,6.1C218.3,431.7,218.3,431.8,218.3,431.9z M244.5,441.9l-8.2-20h4.4l5,12.8l5-12.8h4.3
		l-8.1,20H244.5z M271.8,430v3.7h-8.6v4.5h9.4v3.7h-13.3V422h13.3v3.7h-9.4v4.3H271.8z M283.8,421.9c5.6,0,8.7,3.3,8.7,7.5
		c0.1,2.8-1.7,5.3-4.3,6.3c1.2,0.9,2.3,2.1,3,3.5l1.7,2.6h-4.4l-1.3-2c-1.5-2.4-2-2.8-4-2.9h-2.2v4.9H277V422L283.8,421.9z
		 M280.9,433.3h3.2c2.6,0,4.6-1.2,4.6-3.9s-2-3.8-4.6-3.8h-3.2V433.3z"/>
</svg>
