<?xml version="1.0" encoding="utf-8"?>
<svg xmlns="http://www.w3.org/2000/svg" xmlns:xlink="http://www.w3.org/1999/xlink" viewBox="0 0 512 512">
    <defs>
        <style>
            .cls-1 {isolation: isolate;}
            .cls-2 {fill: #dadada;}
            .cls-10, .cls-16, .cls-3, .cls-9 {opacity: 0.7;}
            .cls-3 {fill: url(#linear-gradient);}
            .cls-4 {opacity: 0.8;}
            .cls-5 {opacity: 0.1; mix-blend-mode: multiply;}
            .cls-6 {fill: url(#radial-gradient);}
            .cls-7 {fill: url(#linear-gradient-2);}
            .cls-8 {fill: #444;}
            .cls-17, .cls-9 {fill: #c2185c;}
            .cls-10 {fill: #880f4f;}
            .cls-12 {fill: #ec4079;}
            .cls-13 {fill: #444242;}
            .cls-14 {fill: #e194db;}
            .cls-15 {fill: #0e343d;}
            .cls-16 {fill: url(#linear-gradient-3);}
        </style>
        <linearGradient id="linear-gradient" x1="69.16" y1="416.87" x2="218.73" y2="416.87" gradientUnits="userSpaceOnUse">
            <stop offset="0" stop-color="#d81c61" />
            <stop offset="0.23" stop-color="#d43280" />
            <stop offset="0.57" stop-color="#d04ea6" />
            <stop offset="0.83" stop-color="#cd5fbe" />
            <stop offset="1" stop-color="#cc65c7" />
        </linearGradient>
        <radialGradient id="radial-gradient" cx="309.22" cy="103.15" r="82.81" gradientUnits="userSpaceOnUse">
            <stop offset="0" stop-color="#f44337" />
            <stop offset="0.23" stop-color="#e7314b" />
            <stop offset="0.45" stop-color="#d81c61" />
            <stop offset="0.67" stop-color="#b11658" />
            <stop offset="0.88" stop-color="#931152" />
            <stop offset="1" stop-color="#880f4f" />
        </radialGradient>
        <linearGradient id="linear-gradient-2" x1="250.52" y1="173.67" x2="434.44" y2="173.67" gradientUnits="userSpaceOnUse">
            <stop offset="0" stop-color="#c2185c" />
            <stop offset="0.18" stop-color="#cd427f" />
            <stop offset="0.45" stop-color="#db77ac" />
            <stop offset="0.68" stop-color="#e59ecd" />
            <stop offset="0.86" stop-color="#ebb6e1" />
            <stop offset="0.97" stop-color="#edbfe8" />
        </linearGradient>
        <linearGradient id="linear-gradient-3" x1="63.27" y1="220.23" x2="177.99" y2="220.23" gradientUnits="userSpaceOnUse">
            <stop offset="0" stop-color="#ec4079" />
            <stop offset="0.32" stop-color="#e33873" />
            <stop offset="0.83" stop-color="#cb2163" />
            <stop offset="1" stop-color="#c2185c" />
        </linearGradient>
    </defs>
    <title>Default book cover</title>
    <g class="cls-1">
        <rect class="cls-2" width="512" height="512" />
        <path class="cls-3" d="M215.11,345.7a12.38,12.38,0,0,1,0,17.5L90.28,488a12.38,12.38,0,0,1-17.5,0h0a12.38,12.38,0,0,1,0-17.5L197.61,345.7a12.38,12.38,0,0,1,17.5,0Z" />
        <path class="cls-4 cls-6" d="M388,24.36a13.7,13.7,0,0,1,0,19.37L249.81,181.94a13.7,13.7,0,0,1-19.38,0h0a13.69,13.69,0,0,1,0-19.38L368.64,24.36a13.7,13.7,0,0,1,19.38,0Z" />
        <path class="cls-7" d="M430,86.17a15.21,15.21,0,0,1,0,21.52L276.49,261.18a15.21,15.21,0,0,1-21.52,0h0a15.22,15.22,0,0,1,0-21.52L408.47,86.17a15.21,15.21,0,0,1,21.51,0Z" />
        <rect class="cls-2" x="143.95" y="103.15" width="225.16" height="334.69" />
        <path class="cls-8" d="M376.62,445.36H136.43V95.63h240.2Zm-225.16-15H361.59V110.67H151.47Z" />
        <path class="cls-9" d="M320,41.29A7.57,7.57,0,0,1,320,52L243.7,128.34a7.57,7.57,0,0,1-10.7,0h0a7.57,7.57,0,0,1,0-10.7l76.35-76.34a7.56,7.56,0,0,1,10.7,0Z" />
        <circle class="cls-10" cx="223.13" cy="138.18" r="7.62" />
        <circle class="cls-11 cls-12" cx="384.8" cy="204.56" r="18.61" />
        <circle class="cls-13" cx="393.95" cy="248.31" r="9.15" />
        <circle class="cls-13" cx="100.44" cy="380.06" r="9.15" />
        <circle class="cls-14" cx="297.75" cy="405.4" r="11.47" />
        <circle class="cls-12" cx="421.45" cy="358.99" r="16.91" />
        <path class="cls-15" d="M262.76,39.25a.61.61,0,0,1,0,.86L75.91,227a.61.61,0,0,1-.86,0h0a.61.61,0,0,1,0-.86L261.9,39.25a.61.61,0,0,1,.86,0Z" />
        <path class="cls-16" d="M175.21,165.66a9.49,9.49,0,0,1,0,13.42L79.47,274.82a9.5,9.5,0,0,1-13.43,0h0a9.49,9.49,0,0,1,0-13.42l95.74-95.74a9.49,9.49,0,0,1,13.42,0Z" />
        <path class="cls-17" d="M203.73,177.48a2.28,2.28,0,0,1,0,3.23L30.65,353.79a2.28,2.28,0,0,1-3.23,0h0a2.28,2.28,0,0,1,0-3.23L200.5,177.48a2.28,2.28,0,0,1,3.23,0Z" />
        <path class="cls-12" d="M434.15,261.87a9.08,9.08,0,0,1,0,12.83l-91.53,91.53a9.08,9.08,0,0,1-12.83,0h0a9.08,9.08,0,0,1,0-12.83l91.53-91.53a9.08,9.08,0,0,1,12.83,0Z" />
        <path class="cls-12" d="M362,375c.68.68,1.12,1.33,1,1.47l-105,105c-.13.13-.79-.31-1.47-1h0c-.68-.68-1.12-1.33-1-1.47l105-105c.13-.14.79.31,1.47,1Z" />
        <path class="cls-11 cls-12" d="M230.76,384a7.55,7.55,0,0,1,0,10.68L154.6,470.78a7.55,7.55,0,0,1-10.68,0h0a7.55,7.55,0,0,1,0-10.68L220.08,384a7.55,7.55,0,0,1,10.68,0Z" />
        <circle class="cls-13" cx="165.36" cy="65.39" r="15.4" />
        <path class="cls-13" d="M173.66,245.47h-3.94V229.21h-5.48v-3.71h14.89v3.71h-5.48Zm21.36,0v-8.19H187.3v8.19h-3.94v-20h3.94v8.07H195v-8.07H199v20Zm22.53-11.89v3.71h-8.64v4.48h9.35v3.71H205v-20h13.29v3.71h-9.35v4.36Zm22.53-8.07c5.79,0,6.76,3.34,6.76,5.3a4.25,4.25,0,0,1-2.62,4.25,4.51,4.51,0,0,1,3.39,4.68c0,3.17-1.77,5.73-7.39,5.73h-7.84v-20Zm-3.76,8h4.19c2.11,0,2.62-1.2,2.62-2.14s-.4-2.14-2.62-2.14h-4.19Zm0,8.24h4.73c2.14,0,2.85-1.14,2.85-2.42s-.8-2.42-2.85-2.42h-4.73Zm34.8-6.25a10.17,10.17,0,1,1-10.18-10.18A10.17,10.17,0,0,1,271.13,235.49Zm-16.4,0a6.24,6.24,0,1,0,6.22-6.47A6.15,6.15,0,0,0,254.73,235.49Zm40,0a10.17,10.17,0,1,1-10.18-10.18A10.17,10.17,0,0,1,294.77,235.49Zm-16.4,0a6.24,6.24,0,1,0,6.22-6.47A6.15,6.15,0,0,0,278.37,235.49Zm29.52,3.56c-.86-1.34-1.34-1.8-2.71-1.8h-1.83v8.21h-3.94v-20h3.94v8h1.71c1.37,0,1.85-.48,2.71-1.8l3.94-6.16h4.45l-4.71,7.36a7.41,7.41,0,0,1-2.31,2.4c.63.29,1.28.8,2.42,2.6l4.88,7.61H312ZM222.81,279.7l-4.85-12-4.88,12h-2.31l-8.07-20h4.36l4.82,12.72,4.91-12.72h2.31L224,272.45l4.82-12.72h4.36l-8,20ZM246.14,276v3.71h-8.73V276h2.4V263.44h-2.4v-3.71h8.73v3.71h-2.4V276Zm13.66,3.71h-3.94V263.44h-5.48v-3.71h14.89v3.71H259.8Zm21.36,0v-8.18h-7.73v8.18H269.5v-20h3.94v8.07h7.73v-8.07h3.94v20Zm29-10a10.17,10.17,0,1,1-10.18-10.18A10.17,10.17,0,0,1,310.12,269.72Zm-16.4,0a6.24,6.24,0,1,0,6.22-6.47A6.15,6.15,0,0,0,293.72,269.72Zm37.25,1.6c0,5.76-3.91,8.58-8.1,8.58s-8.1-2.82-8.1-8.58V259.74h3.94v11.49c0,3.74,2.08,5,4.16,5s4.16-1.23,4.16-5V259.74H331Zm13.35,8.38h-3.94V263.44h-5.48v-3.71h14.89v3.71h-5.48ZM211.2,297.07l-2.57,2.37a7,7,0,0,0-5-2,6.48,6.48,0,0,0,0,12.95,6.89,6.89,0,0,0,5-2l2.57,2.37a10.27,10.27,0,0,1-7.53,3.31,10.18,10.18,0,0,1,0-20.36A10.27,10.27,0,0,1,211.2,297.07Zm23.5,6.87a10.17,10.17,0,1,1-10.18-10.18A10.17,10.17,0,0,1,234.7,303.94Zm-16.4,0a6.24,6.24,0,1,0,6.22-6.47A6.16,6.16,0,0,0,218.3,303.94Zm26.24,10-8.24-20h4.36l5,12.75,5-12.75H255l-8.13,20ZM271.78,302v3.71h-8.64v4.48h9.35v3.71H259.21V294H272.5v3.71h-9.35V302Zm12-8.07c5.59,0,8.67,3.31,8.67,7.53a6.44,6.44,0,0,1-4.31,6.27,11,11,0,0,1,3,3.51l1.71,2.65h-4.42l-1.28-2c-1.54-2.37-2-2.82-4-2.88h-2.2v4.88H277V294Zm-2.85,11.38h3.22c2.57,0,4.56-1.17,4.56-3.85s-2-3.82-4.56-3.82h-3.22Z" />
    </g>
</svg>