<?xml version="1.0" encoding="utf-8"?>
<svg xmlns="http://www.w3.org/2000/svg" xmlns:xlink="http://www.w3.org/1999/xlink" viewBox="0 0 512 512">
    <style type="text/css">
        .st0{fill:#DBDADA;}
        .st1{opacity:0.7;fill:url(#SVGID_1_);enable-background:new    ;}
        .st2{opacity:0.8;fill:url(#SVGID_2_);enable-background:new    ;}
        .st3{fill:url(#SVGID_3_);}
        .st4{fill:#444242;}
        .st5{opacity:0.7;fill:#C2185C;enable-background:new    ;}
        .st6{opacity:0.7;fill:#880F4F;enable-background:new    ;}
        .st7{fill:#EC4079;}
        .st8{fill:#E194DB;}
        .st9{fill:#0E343D;}
        .st10{opacity:0.7;fill:url(#SVGID_4_);enable-background:new    ;}
        .st11{fill:#C2185C;}
    </style>
    <rect class="st0" width="512" height="512" />
    <linearGradient id="SVGID_1_" gradientUnits="userSpaceOnUse" x1="69.2" y1="416.85" x2="218.7" y2="416.85">
        <stop offset="0" style="stop-color:#D81C61" />
        <stop offset="0.23" style="stop-color:#D43280" />
        <stop offset="0.57" style="stop-color:#D04EA6" />
        <stop offset="0.83" style="stop-color:#CD5FBE" />
        <stop offset="1" style="stop-color:#CC65C7" />
    </linearGradient>
    <path class="st1" d="M215.1,345.7c4.8,4.8,4.8,12.7,0,17.5L90.3,488c-4.8,4.8-12.7,4.8-17.5,0l0,0c-4.8-4.8-4.8-12.7,0-17.5
	l124.8-124.8C202.4,340.9,210.3,340.9,215.1,345.7z" />
    <radialGradient id="SVGID_2_" cx="309.1625" cy="103.15" r="82.8062" gradientUnits="userSpaceOnUse">
        <stop offset="0" style="stop-color:#F44337" />
        <stop offset="0.23" style="stop-color:#E7314B" />
        <stop offset="0.45" style="stop-color:#D81C61" />
        <stop offset="0.67" style="stop-color:#B11658" />
        <stop offset="0.88" style="stop-color:#931152" />
        <stop offset="1" style="stop-color:#880F4F" />
    </radialGradient>
    <path class="st2" d="M388,24.4c5.3,5.3,5.3,14,0,19.4L249.8,181.9c-5.3,5.4-14,5.4-19.4,0l0,0l0,0c-5.4-5.3-5.4-14,0-19.4l0,0
	L368.6,24.4C374,19,382.7,19,388,24.4L388,24.4L388,24.4z" />
    <linearGradient id="SVGID_3_" gradientUnits="userSpaceOnUse" x1="250.575" y1="173.6625" x2="434.425" y2="173.6625">
        <stop offset="0" style="stop-color:#C2185C" />
        <stop offset="0.18" style="stop-color:#CD427F" />
        <stop offset="0.45" style="stop-color:#DB77AC" />
        <stop offset="0.68" style="stop-color:#E59ECD" />
        <stop offset="0.86" style="stop-color:#EBB6E1" />
        <stop offset="0.97" style="stop-color:#EDBFE8" />
    </linearGradient>
    <path class="st3" d="M430,86.2c5.9,5.9,5.9,15.6,0,21.5l0,0L276.5,261.2c-5.9,5.9-15.6,5.9-21.5,0l0,0l0,0c-5.9-5.9-5.9-15.6,0-21.5
	L408.5,86.2C414.4,80.2,424,80.2,430,86.2L430,86.2z" />
    <path class="st4" d="M255.5,255.6c54.8,0,99.3-44.4,99.3-99.3s-44.5-99.2-99.3-99.2s-99.3,44.4-99.3,99.3S200.7,255.6,255.5,255.6z
	 M255.5,315.1c-17.5,0-40.9-27.7-66-23.1C119.6,304.9,37,335.7,37,384.4V512h437V384.4c0-48.4-82.1-79.3-151.9-92.2
	C296.8,287.5,273.1,315.1,255.5,315.1z" />
    <path class="st5" d="M320,41.3c3,3,3,7.7,0,10.7l0,0l-76.3,76.3c-3,3-7.7,3-10.7,0l0,0c-3-3-3-7.7,0-10.7l76.4-76.3
	C312.3,38.3,317.1,38.3,320,41.3L320,41.3L320,41.3z" />
    <circle class="st6" cx="223.1" cy="138.2" r="7.6" />
    <circle class="st7" cx="384.8" cy="204.6" r="18.6" />
    <circle class="st4" cx="394" cy="248.3" r="9.1" />
    <circle class="st4" cx="100.4" cy="380.1" r="9.1" />
    <circle class="st8" cx="297.8" cy="405.4" r="11.5" />
    <circle class="st7" cx="421.5" cy="359" r="16.9" />
    <path class="st9" d="M262.8,39.3c0.2,0.2,0.2,0.6,0,0.9L75.9,227c-0.2,0.2-0.6,0.2-0.9,0l0,0c-0.2-0.2-0.2-0.6,0-0.9L261.9,39.3
	C262.1,39,262.5,39,262.8,39.3L262.8,39.3z" />
    <linearGradient id="SVGID_4_" gradientUnits="userSpaceOnUse" x1="63.325" y1="220.25" x2="177.975" y2="220.25">
        <stop offset="0" style="stop-color:#EC4079" />
        <stop offset="0.32" style="stop-color:#E33873" />
        <stop offset="0.83" style="stop-color:#CB2163" />
        <stop offset="1" style="stop-color:#C2185C" />
    </linearGradient>
    <path class="st10" d="M175.2,165.7c3.7,3.7,3.7,9.7,0,13.4l-95.7,95.7c-3.7,3.7-9.7,3.7-13.4,0l0,0c-3.7-3.7-3.7-9.7,0-13.4
	l95.7-95.7C165.5,162,171.5,162,175.2,165.7L175.2,165.7z" />
    <path class="st11" d="M203.7,177.5c0.9,0.9,0.9,2.3,0,3.2l0,0L30.6,353.8c-0.9,0.9-2.3,0.9-3.2,0l0,0l0,0c-0.9-0.9-0.9-2.3,0-3.2
	l0,0l173.1-173.1C201.4,176.6,202.8,176.6,203.7,177.5L203.7,177.5z" />
    <path class="st7" d="M434.1,261.9c3.5,3.5,3.5,9.3,0,12.8l-91.5,91.5c-3.5,3.5-9.3,3.5-12.8,0l0,0c-3.5-3.5-3.5-9.3,0-12.8
	l91.5-91.5C424.9,258.3,430.6,258.3,434.1,261.9z" />
    <path class="st7" d="M362,375c0.7,0.7,1.1,1.3,1,1.5l-105,105c-0.1,0.1-0.8-0.3-1.5-1l0,0c-0.7-0.7-1.1-1.3-1-1.5l105-105
	C360.7,373.9,361.3,374.3,362,375z" />
    <path class="st7" d="M230.8,384c2.9,2.9,3,7.7,0,10.7l0,0l-76.2,76.1c-2.9,2.9-7.7,3-10.7,0l0,0l0,0c-2.9-2.9-3-7.7,0-10.7l0,0
	l76.2-76.1C223,381.1,227.8,381,230.8,384L230.8,384L230.8,384z" />
    <circle class="st4" cx="165.4" cy="65.4" r="15.4" />
</svg>