<?xml version="1.0" encoding="utf-8"?>
<!-- Generator: Adobe Illustrator 21.0.0, SVG Export Plug-In . SVG Version: 6.00 Build 0)  -->
<svg version="1.1" id="Layer_1" xmlns="http://www.w3.org/2000/svg" xmlns:xlink="http://www.w3.org/1999/xlink" x="0px" y="0px"
	 viewBox="0 0 512 768" style="enable-background:new 0 0 512 768;" xml:space="preserve">
<style type="text/css">
	.st0{fill:#DADADA;}
	.st1{opacity:0.7;fill:url(#SVGID_1_);enable-background:new    ;}
	.st2{opacity:0.8;fill:url(#SVGID_2_);enable-background:new    ;}
	.st3{fill:url(#SVGID_3_);}
	.st4{fill:#444444;}
	.st5{opacity:0.7;fill:#C2185C;enable-background:new    ;}
	.st6{opacity:0.7;fill:#880F4F;enable-background:new    ;}
	.st7{fill:#EC4079;}
	.st8{fill:#444242;}
	.st9{fill:#E194DB;}
	.st10{fill:#0E343D;}
	.st11{opacity:0.7;fill:url(#SVGID_4_);enable-background:new    ;}
	.st12{fill:#C2185C;}
</style>
<title>Default book cover</title>
<rect class="st0" width="512" height="768"/>
<linearGradient id="SVGID_1_" gradientUnits="userSpaceOnUse" x1="69.2" y1="318.85" x2="218.7" y2="318.85" gradientTransform="matrix(1 0 0 1 0 256)">
	<stop  offset="0" style="stop-color:#D81C61"/>
	<stop  offset="0.23" style="stop-color:#D43280"/>
	<stop  offset="0.57" style="stop-color:#D04EA6"/>
	<stop  offset="0.83" style="stop-color:#CD5FBE"/>
	<stop  offset="1" style="stop-color:#CC65C7"/>
</linearGradient>
<path class="st1" d="M215.1,503.7c4.8,4.8,4.8,12.7,0,17.5L90.3,646c-4.8,4.8-12.7,4.8-17.5,0l0,0c-4.8-4.8-4.8-12.7,0-17.5
	l124.8-124.8C202.4,498.9,210.3,498.9,215.1,503.7z"/>
<radialGradient id="SVGID_2_" cx="309.1625" cy="-44.8563" r="82.8094" gradientTransform="matrix(1 0 0 1 0 256)" gradientUnits="userSpaceOnUse">
	<stop  offset="0" style="stop-color:#F44337"/>
	<stop  offset="0.23" style="stop-color:#E7314B"/>
	<stop  offset="0.45" style="stop-color:#D81C61"/>
	<stop  offset="0.67" style="stop-color:#B11658"/>
	<stop  offset="0.88" style="stop-color:#931152"/>
	<stop  offset="1" style="stop-color:#880F4F"/>
</radialGradient>
<path class="st2" d="M388,132.4c5.3,5.3,5.3,14,0,19.4L249.8,289.9c-5.3,5.4-14,5.4-19.4,0l0,0l0,0c-5.4-5.3-5.4-14,0-19.4l0,0
	l138.2-138.2C374,127,382.7,127,388,132.4L388,132.4L388,132.4z"/>
<linearGradient id="SVGID_3_" gradientUnits="userSpaceOnUse" x1="250.575" y1="45.6625" x2="434.425" y2="45.6625" gradientTransform="matrix(1 0 0 1 0 256)">
	<stop  offset="0" style="stop-color:#C2185C"/>
	<stop  offset="0.18" style="stop-color:#CD427F"/>
	<stop  offset="0.45" style="stop-color:#DB77AC"/>
	<stop  offset="0.68" style="stop-color:#E59ECD"/>
	<stop  offset="0.86" style="stop-color:#EBB6E1"/>
	<stop  offset="0.97" style="stop-color:#EDBFE8"/>
</linearGradient>
<path class="st3" d="M430,214.2c5.9,5.9,5.9,15.6,0,21.5l0,0L276.5,389.2c-5.9,5.9-15.6,5.9-21.5,0l0,0l0,0
	c-5.9-5.9-5.9-15.6,0-21.5l153.5-153.5C414.4,208.2,424,208.2,430,214.2L430,214.2z"/>
<rect x="163.9" y="251.1" class="st0" width="225.2" height="334.7"/>
<path class="st4" d="M396.6,593.4H156.4V243.6h240.2L396.6,593.4z M171.5,578.4h210.1V258.7H171.5V578.4z"/>
<rect x="143.9" y="231.1" class="st0" width="225.2" height="334.7"/>
<path class="st4" d="M376.6,573.4H136.4V223.6h240.2L376.6,573.4z M151.5,558.4h210.1V238.7H151.5V558.4z"/>
<rect x="123.9" y="211.1" class="st0" width="225.2" height="334.7"/>
<path class="st4" d="M356.6,553.4H116.4V203.6h240.2L356.6,553.4z M131.5,538.4h210.1V218.7H131.5V538.4z"/>
<path class="st5" d="M297,158.3c3,3,3,7.7,0,10.7l0,0l-76.3,76.3c-3,3-7.7,3-10.7,0l0,0c-3-3-3-7.7,0-10.7l76.4-76.3
	C289.3,155.3,294.1,155.3,297,158.3L297,158.3L297,158.3z"/>
<circle class="st6" cx="223.1" cy="266.2" r="7.6"/>
<circle class="st7" cx="384.8" cy="332.6" r="18.6"/>
<circle class="st8" cx="394" cy="376.3" r="9.1"/>
<circle class="st8" cx="100.4" cy="508.1" r="9.1"/>
<circle class="st9" cx="297.8" cy="563.4" r="11.5"/>
<path class="st8" d="M144.9,338c0-1.5,0-3,0-4.5h14.6c0,1.5,0,3,0,4.5h-4.8v15.1c-1.7,0-3.3,0-5,0V338H144.9z M178.9,353.1
	c-1.7,0-3.4,0-5.1,0v-7.9h-6v7.9c-1.7,0-3.4,0-5.1,0v-19.6c1.7,0,3.4,0,5.1,0v7.1h6v-7.1c1.7,0,3.4,0,5.1,0V353.1z M196.1,338
	c-2.9,0-4.4,0-7.3,0v2.8h6.7c0,1.5,0,3,0,4.5h-6.7c0,1.1,0,2.3,0,3.4c2.9,0,4.6,0,7.5,0c0,1.5,0,3,0,4.5c-4.6,0-8,0-12.5,0
	c0-6.6,0-13.1,0-19.6c4.5,0,7.6,0,12.2,0C196.1,335,196.1,336.5,196.1,338z M217.2,333.3c4.1,0,8.5,2.2,9.2,7.4c-1.7,0-3.2,0-4.9,0
	c-0.7-2-2.2-2.9-4.3-2.9c-2.9,0-4.9,2.2-4.9,5.5c0,2.9,1.9,5.4,4.9,5.4c2.1,0,3.8-1.1,4.4-3.2c1.7,0,3.2,0,4.9,0
	c-0.7,5.5-5.1,7.7-9.3,7.7c-5,0-10-3.3-10.1-10C207.2,336.6,212.3,333.3,217.2,333.3z M239.7,353.1h-5v-8.2l-6.6-10.6v-0.8h5.4
	l3.6,6.5h0.2l3.6-6.5h5.4v0.8l-6.6,10.6V353.1z M257.2,333.3c4.1,0,8.5,2.2,9.2,7.4c-1.7,0-3.2,0-4.9,0c-0.7-2-2.2-2.9-4.3-2.9
	c-2.9,0-4.9,2.2-4.9,5.5c0,2.9,1.9,5.4,4.9,5.4c2.1,0,3.8-1.1,4.4-3.2c1.7,0,3.2,0,4.9,0c-0.7,5.5-5.1,7.7-9.3,7.7
	c-5,0-10-3.3-10.1-10C247.2,336.6,252.2,333.3,257.2,333.3z M275.3,348.6h7.1c0,1.7,0,2.8,0,4.5c-4,0-8.2,0-12.2,0v-19.6
	c1.7,0,3.3,0,5,0C275.3,343.6,275.3,340.2,275.3,348.6z M298.1,338c-2.9,0-4.4,0-7.3,0v2.8h6.7c0,1.5,0,3,0,4.5h-6.7
	c0,1.1,0,2.3,0,3.4c2.9,0,4.6,0,7.5,0c0,1.5,0,3,0,4.5c-4.6,0-8,0-12.5,0c0-6.6,0-13.1,0-19.6c4.5,0,7.6,0,12.2,0
	C298.1,335,298.1,336.5,298.1,338z M204.9,367.4l3.3,10.4h0.1l0.9-3.3l2.5-7.4h5v0.8l-6.8,19h-2.9l-3.1-9.4h-0.1l-3.1,9.4h-2.8
	l-6.9-19v-0.8h5.1l2.5,7.4l0.9,3.3h0.1l3.3-10.4C203.5,367.4,204.1,367.4,204.9,367.4z M227.9,382.3c0,1.7,0,2.7,0,4.4
	c-3.3,0-6.6,0-9.9,0c0-1.7,0-2.7,0-4.4h2.5v-10.8h-2.3c0-1.7,0-2.7,0-4.4c3.2,0,6.4,0,9.5,0c0,1.7,0,2.7,0,4.4h-2.3v10.8H227.9z
	 M229.6,371.6c0-1.5,0-3,0-4.5h14.6c0,1.5,0,3,0,4.5h-4.8v15.1c-1.7,0-3.3,0-5,0v-15.1H229.6z M263.6,386.7c-1.7,0-3.4,0-5.1,0v-7.9
	h-6v7.9c-1.7,0-3.4,0-5.1,0v-19.6c1.7,0,3.4,0,5.1,0v7.1h6v-7.1c1.7,0,3.4,0,5.1,0V386.7z M267.4,376.9c0-13.6,20.1-13.6,20.1,0
	C287.5,390.5,267.4,390.5,267.4,376.9z M282.4,376.9c0-7.1-9.8-7.1-9.8,0C272.6,384,282.4,384,282.4,376.9z M301.9,380.1v-13
	c1.6,0,3.3,0,4.8,0v13.1c0,4.3-3.8,6.8-7.8,6.8c-4,0-7.8-2.5-7.8-6.8v-13.1c1.6,0,3.2,0,4.8,0v13c0,1.6,1.5,2.4,3,2.4
	S301.9,381.7,301.9,380.1z M309.6,371.6c0-1.5,0-3,0-4.5h14.6c0,1.5,0,3,0,4.5h-4.8v15.1c-1.7,0-3.3,0-5,0v-15.1H309.6z
	 M186.5,400.5c4.1,0,8.5,2.2,9.2,7.4c-1.7,0-3.2,0-4.9,0c-0.7-2-2.2-2.9-4.3-2.9c-2.9,0-4.9,2.2-4.9,5.5c0,2.9,1.9,5.4,4.9,5.4
	c2.1,0,3.8-1.1,4.4-3.2c1.7,0,3.2,0,4.9,0c-0.7,5.5-5.1,7.7-9.3,7.7c-5,0-10-3.3-10.1-10C176.4,403.8,181.5,400.5,186.5,400.5z
	 M198.4,410.5c0-13.6,20.1-13.6,20.1,0C218.5,424.1,198.4,424.1,198.4,410.5z M213.4,410.5c0-7.1-9.8-7.1-9.8,0
	C203.5,417.6,213.4,417.6,213.4,410.5z M229.6,411.8h0.1l4.5-11.1h4.8v0.8l-8.3,19.1h-2.1l-8.4-19.1v-0.8h4.8L229.6,411.8z
	 M254.2,405.2c-2.9,0-4.4,0-7.3,0v2.8h6.7c0,1.5,0,3,0,4.5h-6.7c0,1.1,0,2.3,0,3.4c2.9,0,4.6,0,7.5,0c0,1.5,0,3,0,4.5
	c-4.6,0-8,0-12.5,0c0-6.6,0-13.1,0-19.6c4.5,0,7.6,0,12.2,0C254.2,402.2,254.2,403.7,254.2,405.2z M275.3,419.6v0.7h-5.6l-3.4-5.8
	h-2.6v5.8c-1.7,0-3.4,0-5,0c0-6.5,0-13,0-19.6c2.8,0,5.7,0,8.6,0c7.7,0,9.1,9.3,4.1,12.7L275.3,419.6z M267.3,405.2
	c-1.2,0-2.4,0-3.6,0c0,1.6,0,3.3,0,4.8h3.6C270,410,270.2,405.2,267.3,405.2z"/>
<circle class="st7" cx="421.5" cy="497" r="16.9"/>
<path class="st10" d="M262.8,117.3c0.2,0.2,0.2,0.6,0,0.9L75.9,305c-0.2,0.2-0.6,0.2-0.9,0l0,0c-0.2-0.2-0.2-0.6,0-0.9l186.8-186.9
	C262.1,117,262.5,117,262.8,117.3L262.8,117.3z"/>
<linearGradient id="SVGID_4_" gradientUnits="userSpaceOnUse" x1="63.325" y1="52.25" x2="177.975" y2="52.25" gradientTransform="matrix(1 0 0 1 0 256)">
	<stop  offset="0" style="stop-color:#EC4079"/>
	<stop  offset="0.32" style="stop-color:#E33873"/>
	<stop  offset="0.83" style="stop-color:#CB2163"/>
	<stop  offset="1" style="stop-color:#C2185C"/>
</linearGradient>
<path class="st11" d="M175.2,253.7c3.7,3.7,3.7,9.7,0,13.4l-95.7,95.7c-3.7,3.7-9.7,3.7-13.4,0l0,0c-3.7-3.7-3.7-9.7,0-13.4
	l95.7-95.7C165.5,250,171.5,250,175.2,253.7L175.2,253.7z"/>
<path class="st12" d="M203.7,295.5c0.9,0.9,0.9,2.3,0,3.2l0,0L30.6,471.8c-0.9,0.9-2.3,0.9-3.2,0l0,0l0,0c-0.9-0.9-0.9-2.3,0-3.2
	l0,0l173.1-173.1C201.4,294.6,202.8,294.6,203.7,295.5L203.7,295.5z"/>
<path class="st7" d="M434.1,389.9c3.5,3.5,3.5,9.3,0,12.8l-91.5,91.5c-3.5,3.5-9.3,3.5-12.8,0l0,0c-3.5-3.5-3.5-9.3,0-12.8
	l91.5-91.5C424.9,386.3,430.6,386.3,434.1,389.9z"/>
<path class="st7" d="M392,543c0.7,0.7,1.1,1.3,1,1.5l-105,105c-0.1,0.1-0.8-0.3-1.5-1l0,0c-0.7-0.7-1.1-1.3-1-1.5l105-105
	C390.7,541.9,391.3,542.3,392,543z"/>
<path class="st7" d="M230.8,552c2.9,2.9,3,7.7,0,10.7l0,0l-76.2,76.1c-2.9,2.9-7.7,3-10.7,0l0,0l0,0c-2.9-2.9-3-7.7,0-10.7l0,0
	l76.2-76.1C223,549.1,227.8,549,230.8,552L230.8,552L230.8,552z"/>
<circle class="st8" cx="165.4" cy="183.4" r="15.4"/>
</svg>
