<?xml version="1.0" encoding="utf-8"?>
<!-- Generator: Adobe Illustrator 21.0.0, SVG Export Plug-In . SVG Version: 6.00 Build 0)  -->
<svg version="1.1" id="Layer_1" xmlns="http://www.w3.org/2000/svg" xmlns:xlink="http://www.w3.org/1999/xlink" x="0px" y="0px"
	 viewBox="0 0 512 512" style="enable-background:new 0 0 512 512;" xml:space="preserve">
<style type="text/css">
	.st0{fill:#DADADA;}
	.st1{opacity:0.7;fill:url(#SVGID_1_);enable-background:new    ;}
	.st2{opacity:0.8;fill:url(#SVGID_2_);enable-background:new    ;}
	.st3{fill:url(#SVGID_3_);}
	.st4{fill:#444444;}
	.st5{fill:#EC4079;}
	.st6{fill:#444242;}
	.st7{opacity:0.7;fill:#C2185C;enable-background:new    ;}
	.st8{opacity:0.7;fill:#880F4F;enable-background:new    ;}
	.st9{fill:#E194DB;}
	.st10{fill:#0E343D;}
	.st11{opacity:0.7;fill:url(#SVGID_4_);enable-background:new    ;}
	.st12{fill:#C2185C;}
</style>
<title>Default book cover</title>
<g>
	<rect class="st0" width="512" height="512"/>
	
		<linearGradient id="SVGID_1_" gradientUnits="userSpaceOnUse" x1="69.158" y1="95.15" x2="218.732" y2="95.15" gradientTransform="matrix(1 0 0 -1 0 512)">
		<stop  offset="0" style="stop-color:#D81C61"/>
		<stop  offset="0.23" style="stop-color:#D43280"/>
		<stop  offset="0.57" style="stop-color:#D04EA6"/>
		<stop  offset="0.83" style="stop-color:#CD5FBE"/>
		<stop  offset="1" style="stop-color:#CC65C7"/>
	</linearGradient>
	<path class="st1" d="M215.1,345.7c4.8,4.8,4.8,12.7,0,17.5L90.3,488c-4.8,4.8-12.7,4.8-17.5,0l0,0c-4.8-4.8-4.8-12.7,0-17.5
		l124.8-124.8C202.4,340.9,210.3,340.9,215.1,345.7z"/>
	
		<radialGradient id="SVGID_2_" cx="309.2104" cy="408.85" r="82.8026" gradientTransform="matrix(1 0 0 -1 0 512)" gradientUnits="userSpaceOnUse">
		<stop  offset="0" style="stop-color:#F44337"/>
		<stop  offset="0.23" style="stop-color:#E7314B"/>
		<stop  offset="0.45" style="stop-color:#D81C61"/>
		<stop  offset="0.67" style="stop-color:#B11658"/>
		<stop  offset="0.88" style="stop-color:#931152"/>
		<stop  offset="1" style="stop-color:#880F4F"/>
	</radialGradient>
	<path class="st2" d="M388,24.4c5.3,5.3,5.3,14,0,19.4L249.8,181.9c-5.3,5.4-14,5.4-19.4,0c0,0,0,0,0,0l0,0c-5.4-5.3-5.4-14,0-19.4
		c0,0,0,0,0,0L368.6,24.4C374,19,382.7,19,388,24.4C388,24.4,388,24.4,388,24.4L388,24.4z"/>
	
		<linearGradient id="SVGID_3_" gradientUnits="userSpaceOnUse" x1="250.5143" y1="338.3225" x2="434.4598" y2="338.3225" gradientTransform="matrix(1 0 0 -1 0 512)">
		<stop  offset="0" style="stop-color:#C2185C"/>
		<stop  offset="0.18" style="stop-color:#CD427F"/>
		<stop  offset="0.45" style="stop-color:#DB77AC"/>
		<stop  offset="0.68" style="stop-color:#E59ECD"/>
		<stop  offset="0.86" style="stop-color:#EBB6E1"/>
		<stop  offset="0.97" style="stop-color:#EDBFE8"/>
	</linearGradient>
	<path class="st3" d="M430,86.2c5.9,5.9,5.9,15.6,0,21.5c0,0,0,0,0,0L276.5,261.2c-5.9,5.9-15.6,5.9-21.5,0c0,0,0,0,0,0l0,0
		c-5.9-5.9-5.9-15.6,0-21.5L408.5,86.2C414.4,80.2,424,80.2,430,86.2L430,86.2z"/>
	<rect x="162" y="107.7" class="st0" width="225.2" height="334.7"/>
	<path class="st4" d="M394.7,450H154.5V100.2h240.2L394.7,450z M169.6,435h210.1V115.3H169.6V435z"/>
	<rect x="142" y="87.7" class="st0" width="225.2" height="334.7"/>
	<circle class="st5" cx="384.8" cy="204.6" r="18.6"/>
	<path class="st4" d="M374.7,430H134.5V80.2h240.2L374.7,430z M149.6,415h210.1V95.3H149.6V415z"/>
	<path class="st5" d="M362,375c0.7,0.7,1.1,1.3,1,1.5l-105,105c-0.1,0.1-0.8-0.3-1.5-1l0,0c-0.7-0.7-1.1-1.3-1-1.5l105-105
		C360.7,373.9,361.3,374.3,362,375z"/>
	<rect x="122" y="67.7" class="st0" width="225.2" height="334.7"/>
	<path class="st4" d="M354.7,410H114.5V60.2h240.2L354.7,410z M129.6,395h210.1V75.3H129.6V395z"/>
	<path class="st6" d="M142.9,194.5c0-1.5,0-3,0-4.5h14.6c0,1.5,0,3,0,4.5h-4.8v15.1c-1.7,0-3.3,0-5,0v-15.1H142.9z M176.9,209.7
		c-1.7,0-3.4,0-5.1,0v-7.9h-6v7.9c-1.7,0-3.4,0-5.1,0v-19.6c1.7,0,3.4,0,5.1,0v7.1h6v-7.1c1.7,0,3.4,0,5.1,0V209.7z M194.2,194.5
		c-2.9,0-4.4,0-7.3,0v2.8h6.7c0,1.5,0,3,0,4.5h-6.7c0,1.1,0,2.3,0,3.4c2.9,0,4.6,0,7.5,0c0,1.5,0,3,0,4.5c-4.6,0-8,0-12.5,0
		c0-6.6,0-13.1,0-19.6c4.5,0,7.6,0,12.2,0C194.2,191.5,194.2,193,194.2,194.5z M215.3,189.8c4.1,0,8.5,2.2,9.2,7.4
		c-1.7,0-3.2,0-4.9,0c-0.7-2-2.2-2.9-4.3-2.9c-2.9,0-4.9,2.2-4.9,5.5c0,2.9,1.9,5.4,4.9,5.4c2.1,0,3.8-1.1,4.4-3.2
		c1.7,0,3.2,0,4.9,0c-0.7,5.5-5.1,7.7-9.3,7.7c-5,0-10-3.3-10.1-10C205.3,193.2,210.3,189.8,215.3,189.8z M237.7,209.7h-5v-8.2
		l-6.6-10.6v-0.8h5.4l3.6,6.5h0.2l3.6-6.5h5.4v0.8l-6.6,10.6V209.7z M255.3,189.8c4.1,0,8.5,2.2,9.2,7.4c-1.7,0-3.2,0-4.9,0
		c-0.7-2-2.2-2.9-4.3-2.9c-2.9,0-4.9,2.2-4.9,5.5c0,2.9,1.9,5.4,4.9,5.4c2.1,0,3.8-1.1,4.4-3.2c1.7,0,3.2,0,4.9,0
		c-0.7,5.5-5.1,7.7-9.3,7.7c-5,0-10-3.3-10.1-10C245.2,193.2,250.3,189.8,255.3,189.8z M273.4,205.1h7.1c0,1.7,0,2.8,0,4.5
		c-4,0-8.2,0-12.2,0v-19.6c1.7,0,3.3,0,5,0C273.4,200.2,273.4,196.8,273.4,205.1z M296.2,194.5c-2.9,0-4.4,0-7.3,0v2.8h6.7
		c0,1.5,0,3,0,4.5h-6.7c0,1.1,0,2.3,0,3.4c2.9,0,4.6,0,7.5,0c0,1.5,0,3,0,4.5c-4.6,0-8,0-12.5,0c0-6.6,0-13.1,0-19.6
		c4.5,0,7.6,0,12.2,0C296.2,191.5,296.2,193,296.2,194.5z M202.9,224l3.3,10.4h0.1l0.9-3.3l2.5-7.4h5v0.8l-6.8,19H205l-3.1-9.4h-0.1
		l-3.1,9.4h-2.8l-6.9-19v-0.8h5.1l2.5,7.4l0.9,3.3h0.1l3.3-10.4C201.6,224,202.1,224,202.9,224z M225.9,238.9c0,1.7,0,2.7,0,4.4
		c-3.3,0-6.6,0-9.9,0c0-1.7,0-2.7,0-4.4h2.5V228h-2.3c0-1.7,0-2.7,0-4.4c3.2,0,6.4,0,9.5,0c0,1.7,0,2.7,0,4.4h-2.3v10.8H225.9z
		 M227.7,228.1c0-1.5,0-3,0-4.5h14.6c0,1.5,0,3,0,4.5h-4.8v15.1c-1.7,0-3.3,0-5,0v-15.1H227.7z M261.7,243.3c-1.7,0-3.4,0-5.1,0
		v-7.9h-6v7.9c-1.7,0-3.4,0-5.1,0v-19.6c1.7,0,3.4,0,5.1,0v7.1h6v-7.1c1.7,0,3.4,0,5.1,0V243.3z M265.5,233.5
		c0-13.6,20.1-13.6,20.1,0C285.6,247.1,265.5,247.1,265.5,233.5z M280.5,233.5c0-7.1-9.8-7.1-9.8,0
		C270.7,240.6,280.5,240.6,280.5,233.5z M299.9,236.6v-13c1.6,0,3.3,0,4.8,0v13.1c0,4.3-3.8,6.8-7.8,6.8c-4,0-7.8-2.5-7.8-6.8v-13.1
		c1.6,0,3.2,0,4.8,0v13c0,1.6,1.5,2.4,3,2.4S299.9,238.2,299.9,236.6z M307.7,228.1c0-1.5,0-3,0-4.5h14.6c0,1.5,0,3,0,4.5h-4.8v15.1
		c-1.7,0-3.3,0-5,0v-15.1H307.7z M184.5,257c4.1,0,8.5,2.2,9.2,7.4c-1.7,0-3.2,0-4.9,0c-0.7-2-2.2-2.9-4.3-2.9
		c-2.9,0-4.9,2.2-4.9,5.5c0,2.9,1.9,5.4,4.9,5.4c2.1,0,3.8-1.1,4.4-3.2c1.7,0,3.2,0,4.9,0c-0.7,5.5-5.1,7.7-9.3,7.7
		c-5,0-10-3.3-10.1-10C174.5,260.4,179.5,257,184.5,257z M196.5,267.1c0-13.6,20.1-13.6,20.1,0C216.6,280.7,196.5,280.7,196.5,267.1
		z M211.4,267.1c0-7.1-9.8-7.1-9.8,0C201.6,274.2,211.4,274.2,211.4,267.1z M227.6,268.4h0.1l4.5-11.1h4.8v0.8l-8.3,19.1h-2.1
		l-8.4-19.1v-0.8h4.8L227.6,268.4z M252.2,261.7c-2.9,0-4.4,0-7.3,0v2.8h6.7c0,1.5,0,3,0,4.5H245c0,1.1,0,2.3,0,3.4
		c2.9,0,4.6,0,7.5,0c0,1.5,0,3,0,4.5c-4.6,0-8,0-12.5,0c0-6.6,0-13.1,0-19.6c4.5,0,7.6,0,12.2,0
		C252.2,258.7,252.2,260.2,252.2,261.7z M273.3,276.1v0.7h-5.6l-3.4-5.8h-2.6v5.8c-1.7,0-3.4,0-5,0c0-6.5,0-13,0-19.6
		c2.8,0,5.7,0,8.6,0c7.7,0,9.1,9.3,4.1,12.7L273.3,276.1z M265.4,261.7c-1.2,0-2.4,0-3.6,0c0,1.6,0,3.3,0,4.8h3.6
		C268.1,266.6,268.2,261.8,265.4,261.7z"/>
	<path class="st7" d="M320,41.3c3,3,3,7.7,0,10.7c0,0,0,0,0,0l-76.3,76.3c-3,3-7.7,3-10.7,0l0,0c-3-3-3-7.7,0-10.7l76.4-76.3
		C312.3,38.3,317.1,38.3,320,41.3C320,41.3,320,41.3,320,41.3L320,41.3z"/>
	<circle class="st8" cx="223.1" cy="138.2" r="7.6"/>
	<circle class="st6" cx="394" cy="248.3" r="9.1"/>
	<circle class="st6" cx="100.4" cy="380.1" r="9.1"/>
	<circle class="st9" cx="297.8" cy="405.4" r="11.5"/>
	<circle class="st5" cx="421.5" cy="359" r="16.9"/>
	<path class="st10" d="M262.8,39.3c0.2,0.2,0.2,0.6,0,0.9L75.9,227c-0.2,0.2-0.6,0.2-0.9,0l0,0c-0.2-0.2-0.2-0.6,0-0.9L261.9,39.3
		C262.1,39,262.5,39,262.8,39.3L262.8,39.3z"/>
	
		<linearGradient id="SVGID_4_" gradientUnits="userSpaceOnUse" x1="63.2609" y1="291.7596" x2="177.9891" y2="291.7596" gradientTransform="matrix(1 0 0 -1 0 512)">
		<stop  offset="0" style="stop-color:#EC4079"/>
		<stop  offset="0.32" style="stop-color:#E33873"/>
		<stop  offset="0.83" style="stop-color:#CB2163"/>
		<stop  offset="1" style="stop-color:#C2185C"/>
	</linearGradient>
	<path class="st11" d="M175.2,165.7c3.7,3.7,3.7,9.7,0,13.4l-95.7,95.7c-3.7,3.7-9.7,3.7-13.4,0l0,0c-3.7-3.7-3.7-9.7,0-13.4
		l95.7-95.7C165.5,162,171.5,162,175.2,165.7L175.2,165.7z"/>
	<path class="st12" d="M203.7,177.5c0.9,0.9,0.9,2.3,0,3.2c0,0,0,0,0,0L30.6,353.8c-0.9,0.9-2.3,0.9-3.2,0c0,0,0,0,0,0l0,0
		c-0.9-0.9-0.9-2.3,0-3.2c0,0,0,0,0,0l173.1-173.1C201.4,176.6,202.8,176.6,203.7,177.5C203.7,177.5,203.7,177.5,203.7,177.5z"/>
	<path class="st5" d="M434.1,261.9c3.5,3.5,3.5,9.3,0,12.8l-91.5,91.5c-3.5,3.5-9.3,3.5-12.8,0l0,0c-3.5-3.5-3.5-9.3,0-12.8
		l91.5-91.5C424.9,258.3,430.6,258.3,434.1,261.9z"/>
	<path class="st5" d="M230.8,384c2.9,2.9,3,7.7,0,10.7c0,0,0,0,0,0l-76.2,76.1c-2.9,2.9-7.7,3-10.7,0c0,0,0,0,0,0l0,0
		c-2.9-2.9-3-7.7,0-10.7c0,0,0,0,0,0l76.2-76.1C223,381.1,227.8,381,230.8,384C230.8,384,230.8,384,230.8,384L230.8,384z"/>
	<circle class="st6" cx="165.4" cy="43.4" r="15.4"/>
	<title>Default book cover</title>
</g>
</svg>
